<svg xmlns="http://www.w3.org/2000/svg" width="400" height="600" viewBox="0 0 400 600" aria-hidden="true" focusable="false" fill="none" stroke="#A9824F" stroke-width="2">
  <path d="M100 50 L300 50"/>
  <path d="M100 50 L100 80 L200 180 L200 420 L100 520 L100 550"/>
  <path d="M300 50 L300 80 L200 180 L200 420 L300 520 L300 550"/>
  <path d="M100 550 L300 550"/>
  <line x1="100" y1="80" x2="300" y2="80"/>
  <line x1="100" y1="520" x2="300" y2="520"/>
  <!-- Sand top -->
  <path d="M160 280 L200 320 L240 280 Z" fill="#A9824F" stroke="none"/>
  <!-- Sand bottom -->
  <path d="M170 460 L200 500 L230 460 Z" fill="#A9824F" stroke="none"/>
  <!-- Hatching -->
  <line x1="120" y1="100" x2="120" y2="160" stroke-width="0.5" stroke-dasharray="2,3"/>
  <line x1="140" y1="120" x2="140" y2="170" stroke-width="0.5" stroke-dasharray="2,3"/>
  <line x1="260" y1="100" x2="260" y2="160" stroke-width="0.5" stroke-dasharray="2,3"/>
  <line x1="280" y1="120" x2="280" y2="170" stroke-width="0.5" stroke-dasharray="2,3"/>
  <line x1="120" y1="430" x2="120" y2="510" stroke-width="0.5" stroke-dasharray="2,3"/>
  <line x1="280" y1="430" x2="280" y2="510" stroke-width="0.5" stroke-dasharray="2,3"/>
  <line x1="160" y1="440" x2="160" y2="500" stroke-width="0.5" stroke-dasharray="2,3"/>
  <line x1="240" y1="440" x2="240" y2="500" stroke-width="0.5" stroke-dasharray="2,3"/>
</svg>