<?xml version="1.0" standalone="no"?>
<!DOCTYPE svg PUBLIC "-//W3C//DTD SVG 20010904//EN"
 "http://www.w3.org/TR/2001/REC-SVG-20010904/DTD/svg10.dtd">
<svg version="1.0" xmlns="http://www.w3.org/2000/svg"
 width="1383.330768pt" height="992.035927pt" viewBox="0 0 1383.330768 992.035927"
 preserveAspectRatio="xMidYMid meet">

<g transform="translate(-313.000000,1489.535927) scale(0.100000,-0.100000)"
fill="#000000" stroke="none">
<path d="M6320 14890 c-185 -20 -264 -31 -398 -59 -79 -16 -154 -36 -166 -45
-25 -16 -36 -66 -36 -156 0 -31 -6 -55 -17 -68 -19 -20 -105 -52 -145 -52 -54
-1 -267 -70 -286 -93 -6 -7 -15 -79 -21 -162 -14 -194 -19 -223 -39 -234 -10
-5 -69 -4 -147 4 -227 23 -254 24 -263 12 -13 -16 -20 -80 -38 -312 -18 -247
-29 -378 -49 -610 -9 -99 -20 -236 -25 -305 -5 -69 -12 -143 -15 -165 -3 -22
-10 -98 -15 -170 -6 -71 -17 -211 -25 -310 -9 -99 -20 -234 -25 -301 -9 -116
-19 -235 -40 -454 -5 -58 -17 -179 -25 -270 -8 -91 -19 -210 -25 -265 -5 -55
-12 -131 -15 -170 -3 -38 -10 -115 -15 -170 -12 -126 -36 -397 -50 -580 -16
-201 -39 -481 -46 -545 -3 -30 -11 -125 -19 -210 -24 -256 -35 -373 -40 -405
-3 -16 -10 -79 -15 -140 -5 -60 -16 -182 -25 -270 -9 -88 -20 -207 -25 -265
-5 -58 -16 -172 -24 -255 -9 -82 -21 -208 -26 -280 -6 -71 -13 -143 -15 -160
-3 -16 -10 -86 -15 -155 -12 -149 -36 -416 -50 -555 -23 -229 -24 -274 -6
-281 23 -9 72 14 100 47 21 24 25 42 31 141 3 62 10 149 15 193 12 99 26 250
45 465 26 294 35 383 50 515 8 72 20 180 25 240 6 61 12 124 15 140 3 17 10
84 15 150 6 66 18 192 26 280 8 88 19 212 24 275 5 63 16 187 25 275 9 88 20
205 25 260 5 55 12 118 15 140 3 22 10 96 15 165 5 69 17 202 25 295 9 94 20
226 25 295 5 69 17 199 25 290 8 91 20 226 25 300 6 74 12 153 15 175 3 22 10
94 15 160 5 66 17 201 25 300 17 189 27 315 45 530 5 72 14 173 20 225 5 52
16 183 25 290 8 107 20 240 25 295 13 125 29 305 40 455 8 100 28 315 49 530
l6 65 50 3 c28 1 91 -3 140 -10 l90 -13 3 -95 c3 -85 -8 -248 -38 -575 -23
-244 -31 -357 -59 -750 -11 -148 -17 -228 -46 -635 -8 -113 -20 -259 -25 -325
-6 -66 -15 -190 -21 -275 -21 -334 -29 -439 -38 -535 -6 -55 -15 -161 -21
-235 -6 -74 -15 -184 -20 -245 -12 -129 -27 -349 -40 -560 -5 -82 -14 -220
-20 -305 -6 -85 -20 -299 -31 -475 -11 -176 -27 -399 -34 -495 -22 -278 -38
-561 -31 -567 3 -4 67 1 142 10 75 9 141 14 146 11 12 -8 7 -56 -17 -164 -9
-41 -25 -124 -36 -185 -10 -60 -29 -159 -40 -218 -13 -67 -18 -112 -12 -118 6
-6 45 0 104 14 241 62 345 80 659 117 325 38 768 48 1120 26 353 -23 484 -43
865 -132 260 -60 576 -165 800 -267 343 -155 512 -245 770 -410 168 -107 245
-167 391 -308 61 -58 120 -112 132 -118 24 -13 47 -6 58 17 5 9 10 1558 11
3442 2 2458 6 3431 14 3446 26 51 135 70 199 35 57 -30 58 -41 49 -471 -5
-212 -7 -1748 -5 -3414 3 -2728 5 -3030 19 -3044 15 -14 20 -13 54 10 21 14
74 59 118 99 432 397 765 604 1278 795 652 243 1190 334 1976 334 561 0 1050
-50 1440 -147 138 -35 145 -35 157 -18 8 11 12 33 9 54 -18 144 -30 226 -56
361 -15 85 -31 181 -35 213 l-7 57 37 0 c20 0 63 -9 95 -20 81 -27 166 -36
186 -20 18 15 19 104 4 290 -5 69 -14 184 -19 255 -5 72 -14 191 -19 265 -26
348 -32 431 -46 650 -8 129 -20 294 -25 365 -15 192 -30 409 -40 590 -10 182
-25 405 -40 580 -12 151 -36 478 -50 700 -6 94 -16 222 -21 285 -6 63 -14 174
-19 245 -5 72 -17 222 -25 335 -9 113 -20 270 -25 350 -13 192 -28 401 -66
890 -9 113 -14 223 -12 244 4 46 12 50 131 61 59 6 77 4 88 -8 21 -21 51 -242
64 -477 3 -52 10 -151 15 -220 6 -69 17 -217 25 -330 19 -261 22 -298 40 -510
9 -96 20 -229 25 -295 5 -66 14 -169 19 -230 6 -60 15 -168 21 -240 12 -141
34 -391 50 -550 12 -119 27 -302 40 -475 19 -256 30 -409 40 -535 17 -202 64
-742 105 -1195 13 -148 23 -276 45 -605 13 -187 25 -329 45 -515 8 -80 20
-203 25 -275 5 -71 12 -146 15 -165 3 -19 10 -100 15 -180 28 -417 40 -520 68
-587 19 -46 53 -71 103 -75 l34 -3 -2 80 c-1 44 -7 130 -13 190 -34 363 -41
440 -50 535 -5 58 -15 159 -21 225 -6 66 -15 163 -20 215 -9 97 -33 363 -49
550 -5 58 -14 155 -19 215 -6 61 -15 162 -21 225 -6 63 -15 167 -21 230 -5 63
-14 171 -19 240 -5 69 -16 195 -25 280 -17 172 -29 308 -50 575 -28 348 -35
430 -40 475 -3 25 -10 99 -15 165 -10 124 -31 362 -50 545 -6 58 -17 179 -25
270 -8 91 -21 242 -30 335 -14 162 -22 260 -45 580 -5 77 -14 194 -20 260 -17
203 -55 776 -65 985 -3 63 -10 177 -17 252 -15 184 -7 177 -179 149 -72 -12
-142 -26 -156 -32 -36 -13 -60 -11 -67 7 -3 8 -11 90 -17 182 -6 92 -15 179
-21 194 -6 16 -22 31 -41 38 -18 7 -41 16 -52 20 -62 26 -355 110 -381 110
-21 0 -31 29 -37 113 -10 136 -8 135 -367 186 -412 59 -759 60 -1170 5 -115
-16 -334 -56 -400 -74 -265 -72 -300 -82 -480 -140 -131 -42 -457 -190 -645
-292 -325 -178 -553 -346 -796 -588 -194 -192 -260 -277 -453 -578 -32 -51
-51 -72 -62 -68 -8 3 -43 8 -77 12 -62 6 -63 7 -84 49 -40 81 -156 250 -250
362 -94 112 -308 329 -393 398 -25 20 -54 44 -65 53 -226 188 -551 388 -860
528 -152 69 -463 182 -600 219 -27 7 -84 22 -125 33 -161 44 -400 85 -650 112
-125 14 -555 21 -650 10z m665 -305 c393 -44 671 -110 997 -234 462 -176 812
-376 1138 -652 251 -212 553 -561 628 -727 16 -34 17 -272 18 -3222 0 -1864
-4 -3195 -9 -3210 -10 -29 2 -41 -94 95 -106 150 -253 308 -463 496 -338 302
-900 644 -1350 822 -513 202 -880 290 -1405 338 -322 30 -870 6 -1165 -51
-119 -23 -202 -32 -209 -24 -4 5 -2 86 5 179 20 272 33 451 44 580 11 128 33
419 51 655 5 80 14 197 20 260 5 63 14 180 19 260 5 80 16 235 25 345 9 110
20 265 26 345 5 80 16 242 25 360 8 118 19 283 24 365 5 83 12 173 15 200 3
28 10 113 15 190 5 77 16 237 25 355 9 118 20 283 25 365 5 83 13 215 19 295
6 80 16 215 21 300 6 85 17 241 25 345 8 105 20 253 25 330 18 237 21 263 33
273 20 15 476 162 503 162 22 0 34 35 34 104 0 57 3 67 22 77 12 6 98 20 192
30 198 21 505 19 721 -6z m6910 0 c72 -9 146 -19 165 -23 l35 -8 -3 -62 c-5
-84 11 -98 159 -136 228 -57 424 -128 441 -159 10 -20 18 -100 47 -482 6 -71
15 -186 20 -255 5 -69 15 -192 20 -275 30 -424 42 -581 51 -695 13 -166 29
-403 40 -575 15 -240 29 -436 40 -550 5 -60 17 -220 25 -355 8 -135 19 -312
25 -395 23 -339 31 -457 40 -595 5 -80 17 -251 25 -380 9 -129 20 -298 25
-375 14 -223 30 -450 40 -585 25 -318 32 -472 23 -481 -6 -6 -42 -2 -99 10
-148 32 -375 65 -579 83 -186 17 -752 17 -920 0 -440 -45 -806 -124 -1175
-255 -150 -53 -189 -68 -277 -108 -23 -10 -44 -19 -47 -19 -15 0 -306 -140
-396 -191 -249 -140 -545 -346 -745 -518 -78 -68 -331 -327 -391 -401 -33 -41
-93 -121 -134 -177 -41 -56 -77 -100 -81 -97 -9 5 -12 6160 -3 6323 l7 124 41
58 c192 270 444 540 661 707 33 25 62 49 65 53 14 18 200 145 313 213 146 88
400 219 515 266 42 17 86 35 97 40 86 40 330 120 495 163 240 63 460 99 700
117 80 6 168 12 195 14 95 7 410 -4 540 -19z m542 -6605 c87 -10 270 -33 359
-46 42 -6 48 -16 62 -94 26 -152 45 -250 63 -320 20 -79 24 -126 12 -133 -8
-4 -234 20 -478 52 -501 65 -1243 74 -1660 20 -252 -32 -311 -41 -505 -80
-166 -32 -451 -111 -615 -169 -209 -74 -513 -214 -630 -291 -43 -27 -81 -49
-87 -47 -5 2 31 42 79 89 242 235 578 453 968 629 28 13 79 36 115 53 94 43
326 124 520 183 286 85 697 150 1075 168 127 6 622 -3 722 -14z m-8027 -5
c350 -27 612 -71 935 -159 184 -50 536 -189 738 -292 344 -175 574 -327 880
-584 124 -105 229 -195 232 -201 18 -28 -12 -13 -116 60 -117 82 -402 232
-594 311 -679 282 -1354 398 -2180 375 -305 -8 -505 -24 -810 -66 -49 -7 -117
-13 -150 -13 l-60 -1 4 65 c1 36 12 110 22 165 11 55 22 138 26 185 3 47 9 92
14 101 6 11 45 19 161 33 84 9 182 21 218 25 108 14 484 12 680 -4z"/>
<path d="M3990 13201 c-43 -9 -90 -33 -111 -57 -42 -48 -49 -82 -59 -267 -10
-192 -20 -315 -45 -592 -8 -93 -20 -222 -25 -285 -5 -63 -16 -185 -25 -270
-33 -318 -46 -448 -55 -550 -26 -282 -50 -540 -75 -805 -8 -93 -20 -224 -25
-290 -5 -66 -12 -138 -15 -160 -3 -22 -9 -89 -15 -150 -5 -60 -17 -180 -25
-265 -9 -85 -20 -198 -25 -250 -5 -52 -14 -138 -19 -190 -6 -52 -15 -140 -21
-195 -6 -55 -15 -143 -21 -195 -11 -99 -20 -198 -44 -465 -25 -278 -46 -484
-80 -805 -9 -80 -20 -192 -25 -250 -5 -58 -16 -170 -25 -250 -8 -80 -20 -192
-25 -250 -9 -99 -16 -179 -40 -415 -6 -55 -17 -167 -25 -250 -9 -82 -20 -186
-25 -229 -6 -44 -10 -121 -10 -171 0 -82 3 -99 28 -145 15 -29 44 -67 65 -84
l39 -31 2884 -5 2884 -5 21 -40 c73 -136 168 -243 255 -286 l49 -24 690 0 690
0 50 24 c73 36 193 161 238 247 20 40 44 74 52 78 8 3 1294 6 2858 6 1680 0
2856 4 2875 9 76 22 135 93 152 183 12 62 -9 311 -85 993 -9 77 -20 183 -25
235 -5 52 -16 158 -25 235 -17 154 -40 374 -55 530 -5 55 -16 170 -25 255 -9
85 -20 202 -25 260 -5 58 -16 173 -25 255 -8 83 -22 224 -31 315 -19 202 -28
300 -49 500 -9 85 -20 202 -25 260 -8 98 -14 162 -40 425 -5 55 -17 174 -25
265 -9 91 -22 230 -30 310 -8 80 -20 195 -25 255 -6 61 -15 151 -20 200 -5 50
-12 124 -15 165 -3 41 -10 118 -15 170 -6 52 -17 176 -25 275 -9 99 -20 216
-25 260 -5 44 -12 116 -15 160 -3 44 -10 123 -15 175 -5 52 -17 169 -25 260
-9 91 -18 185 -21 210 -4 40 -18 183 -44 468 -10 110 -36 171 -93 216 l-39 31
-191 3 c-118 2 -203 -1 -219 -7 -26 -10 -28 -14 -28 -71 0 -34 4 -91 10 -128
10 -71 26 -242 41 -432 4 -63 15 -187 24 -275 9 -88 20 -200 25 -250 5 -49 13
-137 19 -195 6 -58 16 -157 21 -220 6 -63 17 -176 25 -250 8 -74 19 -200 25
-280 6 -80 16 -188 21 -240 5 -52 14 -149 19 -214 5 -66 12 -133 15 -150 3
-17 10 -80 15 -141 5 -60 17 -177 25 -260 27 -260 49 -502 75 -800 9 -108 27
-296 55 -590 8 -82 20 -204 25 -270 6 -66 18 -196 26 -290 8 -93 19 -217 24
-275 5 -58 16 -172 25 -255 9 -82 20 -197 26 -255 5 -58 12 -118 14 -135 3
-16 10 -82 16 -145 24 -274 43 -483 75 -800 9 -91 18 -215 21 -275 5 -102 4
-111 -16 -129 -20 -18 -25 -19 -163 -2 -220 25 -308 34 -498 51 -96 9 -213 20
-260 25 -47 5 -164 16 -260 25 -96 9 -215 20 -265 25 -49 5 -124 12 -165 15
-41 3 -124 10 -185 15 -100 9 -269 22 -665 50 -418 29 -1276 34 -1715 10 -505
-29 -1004 -100 -1235 -177 -88 -29 -116 -44 -189 -98 -29 -22 -61 -46 -71 -53
-14 -10 -28 -8 -86 18 -198 89 -382 130 -586 130 -188 0 -311 -27 -481 -107
-65 -30 -82 -35 -95 -25 -33 24 -192 100 -250 120 -110 39 -304 80 -497 106
-60 9 -141 20 -180 26 -38 5 -135 16 -215 25 -80 8 -199 20 -265 27 -86 9
-320 13 -835 13 -684 -1 -897 -7 -1215 -36 -60 -6 -166 -14 -235 -19 -69 -5
-210 -16 -315 -25 -104 -9 -242 -20 -305 -25 -63 -5 -187 -16 -275 -25 -88 -9
-205 -20 -260 -25 -55 -5 -131 -13 -170 -19 -38 -5 -117 -15 -175 -21 -58 -7
-152 -19 -209 -26 -58 -8 -128 -14 -156 -14 -49 0 -53 2 -70 34 -17 31 -17 42
-7 122 16 119 47 411 61 559 6 66 18 197 26 290 8 94 22 240 30 325 9 85 20
200 25 255 5 55 14 145 20 200 6 55 15 152 20 215 5 63 17 185 25 270 9 85 20
205 25 265 5 61 11 128 14 150 10 72 35 326 51 530 8 110 20 243 25 295 5 52
17 172 25 265 8 94 20 222 25 285 12 124 24 283 40 505 6 77 12 151 15 165 3
14 9 86 15 160 5 74 17 223 25 330 9 107 20 253 25 324 5 71 12 147 15 170 3
22 10 97 15 166 6 69 17 193 25 275 9 83 20 197 25 255 5 58 14 157 20 220 5
63 14 156 20 205 5 50 14 131 19 180 6 50 16 138 22 197 9 86 9 111 -1 123
-10 13 -44 15 -209 14 -108 -1 -212 -4 -231 -8z"/>
<path d="M6230 7004 c-241 -16 -498 -44 -585 -63 -22 -5 -78 -17 -125 -26 -47
-9 -98 -20 -115 -25 -16 -5 -47 -12 -67 -16 -21 -3 -38 -11 -38 -16 0 -12 63
-6 175 16 44 9 109 21 145 26 36 5 97 14 135 19 279 42 567 56 997 48 190 -4
338 -3 338 2 0 5 -39 11 -87 14 -49 3 -153 10 -233 16 -134 9 -433 12 -540 5z"/>
<path d="M13315 6999 c-254 -8 -407 -19 -570 -43 -208 -31 -233 -36 -259 -46
-15 -5 -43 -10 -62 -10 -19 0 -34 -5 -34 -11 0 -8 17 -10 53 -6 121 14 216 26
277 36 347 53 1024 58 1415 10 257 -32 293 -37 385 -53 155 -29 160 -29 160
-17 0 6 -9 11 -20 11 -10 0 -39 6 -62 14 -55 17 -291 60 -388 70 -25 3 -83 9
-130 15 -79 10 -345 29 -470 34 -30 1 -163 -1 -295 -4z"/>
<path d="M12298 6873 c-16 -2 -28 -9 -28 -14 0 -15 63 -6 68 9 2 6 0 11 -5 11
-4 -1 -20 -4 -35 -6z"/>
<path d="M6625 6439 c-368 -12 -789 -54 -1375 -134 -63 -9 -169 -22 -235 -30
-141 -17 -219 -29 -335 -49 -145 -26 -205 -36 -213 -36 -13 0 -107 -103 -107
-117 0 -16 74 -11 360 22 433 51 511 59 1060 115 92 9 222 21 455 40 250 21
655 32 985 26 599 -11 938 -45 1575 -161 126 -23 209 -35 213 -30 18 17 -69
61 -228 115 -419 142 -912 219 -1530 240 -298 11 -299 11 -625 -1z"/>
<path d="M12700 6439 c-124 -4 -277 -12 -340 -18 -63 -7 -140 -14 -170 -17
-116 -10 -294 -35 -520 -74 -199 -34 -462 -116 -605 -187 -171 -85 -163 -105
25 -59 193 48 432 91 690 125 83 12 315 34 545 53 206 17 1085 17 1315 0 290
-22 647 -53 840 -73 52 -6 142 -14 200 -19 58 -6 170 -17 250 -25 80 -8 197
-20 260 -25 63 -6 122 -12 130 -15 8 -2 76 -9 150 -14 74 -6 156 -13 183 -16
41 -5 47 -3 47 13 0 21 -64 70 -125 94 -53 22 -192 47 -375 68 -41 5 -129 16
-195 25 -66 9 -174 22 -240 30 -66 8 -158 19 -205 25 -266 34 -610 69 -885 90
-134 10 -688 32 -730 28 -11 0 -121 -5 -245 -9z"/>
</g>
</svg>
