<?xml version="1.0" encoding="UTF-8"?>
<svg version="1.1" xmlns="http://www.w3.org/2000/svg" width="702" height="544">
<path d="M0 0 C7.28310802 5.98833326 12.64116594 12.70756072 13.8125 22.3125 C14.40181199 31.15217989 12.22432288 38.20948247 6.8125 45.3125 C6.29042969 45.73402344 5.76835937 46.15554687 5.23046875 46.58984375 C3.15742455 49.10833546 3.29772751 51.28726835 3.125 54.5 C3.05925781 55.58667969 2.99351562 56.67335937 2.92578125 57.79296875 C2.88839844 58.62441406 2.85101563 59.45585937 2.8125 60.3125 C0.3375 60.8075 0.3375 60.8075 -2.1875 61.3125 C-2.8475 59.0025 -3.5075 56.6925 -4.1875 54.3125 C-5.5075 53.9825 -6.8275 53.6525 -8.1875 53.3125 C-8.1875 51.125 -8.1875 51.125 -7.1875 48.3125 C-5.515625 47.1484375 -5.515625 47.1484375 -3.4375 46 C2.12068893 42.85667951 4.82381237 38.27856289 6.8125 32.3125 C7.45197697 24.64925963 7.73911848 17.57026609 2.8125 11.3125 C-1.89648075 6.35774781 -6.2649655 2.74443082 -13.23828125 1.9765625 C-21.45172584 1.87819789 -27.08974282 2.41800459 -33.15625 8.18359375 C-39.22154401 14.75847189 -40.74251865 20.02610509 -40.55078125 28.95703125 C-39.84399133 35.48533814 -37.66296366 40.21119039 -32.62890625 44.484375 C-30.19980324 46.2071431 -27.75553424 47.80658478 -25.1875 49.3125 C-25.5175 50.9625 -25.8475 52.6125 -26.1875 54.3125 C-27.1775 54.3125 -28.1675 54.3125 -29.1875 54.3125 C-29.19173194 55.3929402 -29.19596388 56.47338039 -29.20032406 57.5865612 C-29.30338642 83.84129149 -29.41211776 110.09599359 -29.52683926 136.35067558 C-29.58218494 149.04708804 -29.63566912 161.74350331 -29.68481445 174.43994141 C-29.72763983 185.50244605 -29.77391362 196.56492989 -29.82437855 207.62740242 C-29.85099277 213.48822703 -29.87584616 219.34904747 -29.89657402 225.20989609 C-29.91611798 230.72061622 -29.94025498 236.2312967 -29.96799088 241.74198151 C-29.97737321 243.76973121 -29.98504421 245.79748963 -29.99091911 247.82525253 C-29.99916024 250.58340516 -30.01343123 253.34146104 -30.02928162 256.09957886 C-30.03025972 256.91085232 -30.03123783 257.72212578 -30.03224558 258.55798328 C-30.07337879 264.08425758 -30.07337879 264.08425758 -31.1875 266.3125 C-32.5075 266.3125 -33.8275 266.3125 -35.1875 266.3125 C-36.81824838 263.05100325 -36.32026126 259.45536402 -36.30775452 255.87179565 C-36.30860894 254.98803949 -36.30946337 254.10428334 -36.31034368 253.19374669 C-36.31199855 250.21491896 -36.30647698 247.23614681 -36.30102539 244.25732422 C-36.30074349 242.12897747 -36.3009013 240.00063063 -36.3014679 237.87228394 C-36.30175578 232.07919023 -36.29586057 226.28611708 -36.28889394 220.49302816 C-36.28265883 214.4445007 -36.28205648 208.39597281 -36.28086853 202.34744263 C-36.27775568 190.88689765 -36.26954291 179.42636217 -36.25951904 167.96582139 C-36.24835647 154.92128443 -36.24284709 141.87674703 -36.23782361 128.83220649 C-36.22736026 101.99229905 -36.20976171 75.15240006 -36.1875 48.3125 C-37.1775 47.9825 -38.1675 47.6525 -39.1875 47.3125 C-45.04268912 39.53537858 -48.38771659 31.08569222 -47.1875 21.3125 C-45.27817663 12.56036672 -40.95310212 6.13633031 -34.1875 0.3125 C-23.15968748 -6.44359908 -11.27254332 -5.96781705 0 0 Z " fill="#000000" transform="translate(365.1875,100.6875)"/>
<path d="M0 0 C4.38253554 2.19126777 7.16669816 4.41674539 9 9 C9.715328 13.76885333 9.48847963 17.05793214 7.25 21.375 C4.53216719 24.54580494 2.61252189 26.70769996 -1.5859375 27.46875 C-10.04558011 27.56353591 -10.04558011 27.56353591 -13.5625 24.75 C-17.5057288 20.30122904 -18.460979 17.11001527 -18.31640625 11.25 C-17.67698796 6.70302551 -15.18835099 4.01858656 -11.8125 1.125 C-7.79880044 -0.48047982 -4.26304489 -0.67667379 0 0 Z M-11 8 C-13.32877362 10.87594836 -13.32877362 10.87594836 -12.9375 14.4375 C-12.25846381 18.06104076 -12.25846381 18.06104076 -9.875 20.5 C-6.02851705 22.50686067 -4.11453459 22.27176524 0 21 C2.65884601 19.00979883 2.65884601 19.00979883 4 16 C3.93971156 12.50327038 3.69777177 10.1017449 1.8125 7.125 C-3.00471061 4.13500721 -6.63543949 4.60534183 -11 8 Z " fill="#000000" transform="translate(353,113)"/>
<path d="M0 0 C1.32 0.66 2.64 1.32 4 2 C2.24280722 7.10619548 -0.5870342 11.53393804 -3.375 16.125 C-3.9102832 17.01171387 -4.44556641 17.89842773 -4.99707031 18.81201172 C-8.99338338 25.40581122 -13.08560171 31.93518621 -17.22290039 38.44116211 C-21.48365205 45.15087282 -25.65544934 51.91313949 -29.8125 58.6875 C-35.68382612 68.25317514 -41.60083132 77.7885434 -47.55908203 87.30029297 C-51.62371309 93.79102419 -55.66390194 100.29626332 -59.6875 106.8125 C-64.28089082 114.2504827 -68.92948824 121.65122666 -73.61303711 129.03271484 C-77.05217718 134.46533623 -80.41400363 139.94107643 -83.75 145.4375 C-85.49370148 148.29556916 -87.24352352 151.14976459 -89 154 C-89.3923584 154.63711914 -89.7847168 155.27423828 -90.18896484 155.93066406 C-91.25741925 157.65030122 -92.34679567 159.35688843 -93.4375 161.0625 C-94.33275391 162.47208984 -94.33275391 162.47208984 -95.24609375 163.91015625 C-97.15428204 166.18383272 -98.09567519 166.68722656 -101 167 C-101.85023885 164.62700951 -102.17495881 163.44339259 -101.23413086 161.05908203 C-100.81526611 160.38216309 -100.39640137 159.70524414 -99.96484375 159.0078125 C-99.49272461 158.23228027 -99.02060547 157.45674805 -98.53417969 156.65771484 C-98.00727539 155.82191895 -97.48037109 154.98612305 -96.9375 154.125 C-96.39383789 153.24150879 -95.85017578 152.35801758 -95.29003906 151.44775391 C-90.7664125 144.12936545 -86.13391847 136.87766503 -81.49365234 129.6328125 C-76.23956453 121.420709 -71.12828513 113.12478089 -66.03222656 104.81396484 C-61.5572971 97.51985136 -57.04497992 90.25065299 -52.5 83 C-47.29306021 74.69109726 -42.13092183 66.35605497 -37 58 C-29.98156459 46.57331223 -22.90265297 35.18582939 -15.77392578 23.82763672 C-14.00162975 21.00259783 -12.23320523 18.17515916 -10.46484375 15.34765625 C-9.37265727 13.6066068 -8.28022256 11.86571304 -7.1875 10.125 C-6.68959961 9.32779541 -6.19169922 8.53059082 -5.67871094 7.70922852 C-5.22141602 6.98276123 -4.76412109 6.25629395 -4.29296875 5.5078125 C-3.8961792 4.87504395 -3.49938965 4.24227539 -3.09057617 3.59033203 C-2 2 -2 2 0 0 Z " fill="#000000" transform="translate(320,164)"/>
<path d="M0 0 C0.83265381 0.00523682 1.66530762 0.01047363 2.52319336 0.01586914 C3.42231445 0.0190918 4.32143555 0.02231445 5.24780273 0.02563477 C6.66609375 0.03820312 6.66609375 0.03820312 8.11303711 0.05102539 C9.06243164 0.05553711 10.01182617 0.06004883 10.98999023 0.06469727 C13.34356776 0.07652429 15.69702188 0.09300514 18.05053711 0.11352539 C18.38053711 1.10352539 18.71053711 2.09352539 19.05053711 3.11352539 C31.59053711 2.78352539 44.13053711 2.45352539 57.05053711 2.11352539 C57.38053711 1.45352539 57.71053711 0.79352539 58.05053711 0.11352539 C63.00053711 0.11352539 67.95053711 0.11352539 73.05053711 0.11352539 C74.04053711 3.08352539 74.04053711 3.08352539 75.05053711 6.11352539 C75.38053711 5.78352539 75.71053711 5.45352539 76.05053711 5.11352539 C78.39307493 5.01859817 80.70599815 4.98792748 83.04882812 5 C84.14632385 4.99978096 84.14632385 4.99978096 85.26599121 4.9995575 C87.69550495 5.00025672 90.12494294 5.00804954 92.55444336 5.01586914 C94.23453225 5.01773329 95.91462168 5.0191572 97.5947113 5.02015686 C102.02527354 5.02398232 106.45580321 5.03381283 110.88635254 5.04486084 C115.40396687 5.05507437 119.92158645 5.05965435 124.43920898 5.06469727 C133.30966604 5.07543508 142.18009887 5.09251183 151.05053711 5.11352539 C151.38053711 3.46352539 151.71053711 1.81352539 152.05053711 0.11352539 C155.92553711 0.98852539 155.92553711 0.98852539 157.05053711 2.11352539 C157.15166523 5.04719507 157.19022751 7.95682712 157.18334961 10.89086914 C157.18430634 11.77255264 157.18526306 12.65423615 157.18624878 13.56263733 C157.1869307 15.43140738 157.18507562 17.30017978 157.1809082 19.16894531 C157.17556643 22.03529167 157.18084953 24.90148086 157.18725586 27.76782227 C157.18659496 29.57967157 157.18531354 31.39152078 157.18334961 33.20336914 C157.18537384 34.06486069 157.18739807 34.92635223 157.18948364 35.81394958 C157.1654915 41.88361661 157.1654915 41.88361661 156.05053711 44.11352539 C154.40053711 43.78352539 152.75053711 43.45352539 151.05053711 43.11352539 C151.05053711 41.79352539 151.05053711 40.47352539 151.05053711 39.11352539 C150.11315201 39.115746 149.17576691 39.11796661 148.2099762 39.12025452 C139.39531926 39.14048682 130.58066701 39.15549796 121.76599216 39.16533756 C117.23379616 39.17056617 112.70161884 39.1776634 108.16943359 39.18896484 C103.79930881 39.19979453 99.42920203 39.2058024 95.05906487 39.20840263 C93.38802748 39.21025674 91.71699114 39.21387707 90.04596138 39.21925545 C87.7135616 39.22646698 85.38123718 39.22751629 83.04882812 39.22705078 C82.35111801 39.23064606 81.6534079 39.23424133 80.93455505 39.23794556 C76.16458927 39.22757755 76.16458927 39.22757755 75.05053711 38.11352539 C74.06053711 41.08352539 74.06053711 41.08352539 73.05053711 44.11352539 C68.10053711 44.11352539 63.15053711 44.11352539 58.05053711 44.11352539 C57.72053711 43.12352539 57.39053711 42.13352539 57.05053711 41.11352539 C44.51053711 41.11352539 31.97053711 41.11352539 19.05053711 41.11352539 C18.72053711 42.10352539 18.39053711 43.09352539 18.05053711 44.11352539 C14.73805524 44.14240686 11.42560544 44.16028338 8.11303711 44.17602539 C7.16750977 44.1844043 6.22198242 44.1927832 5.24780273 44.20141602 C3.89912109 44.20625 3.89912109 44.20625 2.52319336 44.21118164 C1.27421265 44.21903687 1.27421265 44.21903687 0 44.22705078 C-1.94946289 44.11352539 -1.94946289 44.11352539 -2.94946289 43.11352539 C-3.0506321 40.02271074 -3.08914847 36.95469984 -3.08227539 33.86352539 C-3.08323212 32.93507812 -3.08418884 32.00663086 -3.08517456 31.05004883 C-3.08585644 29.08292574 -3.08400161 27.11580043 -3.07983398 25.14868164 C-3.07448584 22.12649513 -3.07977871 19.10445724 -3.08618164 16.08227539 C-3.08552086 14.17602506 -3.0842397 12.26977482 -3.08227539 10.36352539 C-3.08429962 9.453125 -3.08632385 8.54272461 -3.08840942 7.60473633 C-3.06045999 0.17822341 -3.06045999 0.17822341 0 0 Z M63.05053711 5.11352539 C63.05053711 7.42352539 63.05053711 9.73352539 63.05053711 12.11352539 C64.70053711 12.11352539 66.35053711 12.11352539 68.05053711 12.11352539 C68.05053711 9.80352539 68.05053711 7.49352539 68.05053711 5.11352539 C66.40053711 5.11352539 64.75053711 5.11352539 63.05053711 5.11352539 Z M2.05053711 6.11352539 C1.96209918 8.56182966 1.93524959 10.98173138 1.95288086 13.42993164 C1.95429581 14.16098618 1.95571075 14.89204071 1.95716858 15.64524841 C1.96278303 17.98888171 1.97533789 20.33242078 1.98803711 22.67602539 C1.99305025 24.26131047 1.99761348 25.84659705 2.00170898 27.43188477 C2.01275714 31.32580149 2.03003139 35.21964745 2.05053711 39.11352539 C5.68053711 39.11352539 9.31053711 39.11352539 13.05053711 39.11352539 C13.71053711 37.46352539 14.37053711 35.81352539 15.05053711 34.11352539 C15.53103516 34.43498535 16.0115332 34.75644531 16.5065918 35.08764648 C20.18879424 36.57254233 23.83882137 36.47179779 27.75366211 36.52758789 C28.59145203 36.54695404 29.42924194 36.56632019 30.29241943 36.58627319 C32.96168924 36.64593263 35.6310025 36.69239952 38.30053711 36.73852539 C40.11305565 36.77671775 41.92555629 36.81577021 43.73803711 36.85571289 C48.17544261 36.95323829 52.61266318 37.03291391 57.05053711 37.11352539 C57.05053711 27.21352539 57.05053711 17.31352539 57.05053711 7.11352539 C51.71157004 7.21050472 46.37337139 7.31326152 41.03491211 7.4309082 C39.2192259 7.46916731 37.4034647 7.50402556 35.58764648 7.53540039 C32.97604588 7.58111769 30.36496023 7.63910075 27.75366211 7.69946289 C26.94310364 7.7110141 26.13254517 7.72256531 25.29742432 7.73446655 C21.43788987 7.83530695 18.32235125 7.92463565 15.05053711 10.11352539 C14.39053711 8.46352539 13.73053711 6.81352539 13.05053711 5.11352539 C11.40479145 5.08664388 9.75892298 5.06718416 8.11303711 5.05102539 C6.73825195 5.03362305 6.73825195 5.03362305 5.33569336 5.01586914 C3.08460384 4.8540349 3.08460384 4.8540349 2.05053711 6.11352539 Z M74.05053711 10.11352539 C74.05053711 18.03352539 74.05053711 25.95352539 74.05053711 34.11352539 C99.46053711 33.78352539 124.87053711 33.45352539 151.05053711 33.11352539 C151.05053711 25.85352539 151.05053711 18.59352539 151.05053711 11.11352539 C125.64053711 10.78352539 100.23053711 10.45352539 74.05053711 10.11352539 Z M63.05053711 15.11352539 C63.05053711 19.73352539 63.05053711 24.35352539 63.05053711 29.11352539 C64.70053711 28.78352539 66.35053711 28.45352539 68.05053711 28.11352539 C68.05053711 24.15352539 68.05053711 20.19352539 68.05053711 16.11352539 C66.40053711 15.78352539 64.75053711 15.45352539 63.05053711 15.11352539 Z M63.05053711 32.11352539 C63.05053711 34.42352539 63.05053711 36.73352539 63.05053711 39.11352539 C64.70053711 39.11352539 66.35053711 39.11352539 68.05053711 39.11352539 C68.05053711 36.80352539 68.05053711 34.49352539 68.05053711 32.11352539 C66.40053711 32.11352539 64.75053711 32.11352539 63.05053711 32.11352539 Z " fill="#000000" transform="translate(348.949462890625,167.886474609375)"/>
<path d="M0 0 C2.475 0.495 2.475 0.495 5 1 C4.51557991 6.24616649 1.75407351 9.90278472 -1.0625 14.1875 C-2.16307535 15.89479204 -3.26194216 17.60318629 -4.359375 19.3125 C-5.24399414 20.68728516 -5.24399414 20.68728516 -6.14648438 22.08984375 C-9.43268844 27.24942653 -12.61765071 32.47104676 -15.8125 37.6875 C-21.25960508 46.56195275 -26.73359877 55.41845707 -32.25 64.25 C-32.86979736 65.24346436 -33.48959473 66.23692871 -34.12817383 67.26049805 C-34.70978271 68.19031494 -35.2913916 69.12013184 -35.890625 70.078125 C-36.42751953 70.94115234 -36.96441406 71.80417969 -37.51757812 72.69335938 C-38.77368241 74.64785103 -40.09965191 76.49650822 -41.484375 78.359375 C-43.19201636 80.86134633 -43.19201636 80.86134633 -43.09765625 83.546875 C-41.58164137 86.93497942 -39.25792412 88.95507456 -36.4375 91.25 C-35.86104736 91.72526123 -35.28459473 92.20052246 -34.69067383 92.69018555 C-24.88471848 100.51952385 -13.99043438 106.16573658 -2.05151367 109.97387695 C2.70626678 111.55940018 2.70626678 111.55940018 4.4453125 114.16796875 C4.62835938 114.77253906 4.81140625 115.37710938 5 116 C4.01 116.66 3.02 117.32 2 118 C-13.69142281 114.82148102 -27.72173429 105.88296656 -40 96 C-40.68449219 95.46890625 -41.36898438 94.9378125 -42.07421875 94.390625 C-43.4293361 93.31663922 -44.72538642 92.16839578 -46 91 C-46 90.34 -46 89.68 -46 89 C-46.66 89 -47.32 89 -48 89 C-48 88.34 -48 87.68 -48 87 C-48.66 87 -49.32 87 -50 87 C-50.92380406 83.98569395 -51.21720894 82.50083466 -49.94287109 79.5625 C-49.11650146 78.2940625 -49.11650146 78.2940625 -48.2734375 77 C-47.35401367 75.56237305 -47.35401367 75.56237305 -46.41601562 74.09570312 C-45.74248047 73.07412109 -45.06894531 72.05253906 -44.375 71 C-42.97597188 68.82329616 -41.57754459 66.64620605 -40.1796875 64.46875 C-39.47295898 63.37820312 -38.76623047 62.28765625 -38.03808594 61.1640625 C-35.1289737 56.64775985 -32.31208437 52.07709255 -29.5 47.5 C-24.12154568 38.79019609 -18.69768465 30.10915457 -13.26733398 21.43164062 C-8.81152849 14.30798689 -4.38258129 7.16895086 0 0 Z " fill="#000000" transform="translate(319,185)"/>
<path d="M0 0 C10.56 0 21.12 0 32 0 C32.495 1.98 32.495 1.98 33 4 C32 5 32 5 29.04077148 5.11352539 C27.74727783 5.10828857 26.45378418 5.10305176 25.12109375 5.09765625 C24.09110008 5.09553383 24.09110008 5.09553383 23.04029846 5.09336853 C20.83932199 5.08775479 18.63844591 5.07520007 16.4375 5.0625 C14.94856917 5.05748676 13.45963676 5.05292355 11.97070312 5.04882812 C8.31376925 5.03778093 4.65689442 5.02050713 1 5 C0.67 3.35 0.34 1.7 0 0 Z " fill="#000000" transform="translate(368,185)"/>
<path d="M0 0 C21.45 0 42.9 0 65 0 C65.495 1.485 65.495 1.485 66 3 C63.28276968 5.71723032 61.82379081 5.25885728 58.02148438 5.2746582 C56.76678345 5.28419022 55.51208252 5.29372223 54.21936035 5.30354309 C52.84415662 5.3032817 51.46895287 5.30234481 50.09375 5.30078125 C48.68892286 5.30466654 47.28409689 5.30900086 45.87927246 5.31376648 C42.9336364 5.32123354 39.98812019 5.3209337 37.04248047 5.31567383 C33.26252304 5.30987463 29.48305489 5.3268181 25.70317841 5.3500185 C22.80187092 5.36472927 19.90068204 5.36563128 16.99934387 5.36250877 C15.60544362 5.36302321 14.21153694 5.36828375 12.81767273 5.37832069 C10.87132484 5.39061667 8.92487837 5.3819769 6.97851562 5.37231445 C5.31544373 5.37325859 5.31544373 5.37325859 3.61877441 5.3742218 C2.75457886 5.25072861 1.8903833 5.12723541 1 5 C0.34 4.01 -0.32 3.02 -1 2 C-0.67 1.34 -0.34 0.68 0 0 Z " fill="#000000" transform="translate(429,185)"/>
<path d="M0 0 C1.79418945 0.19799805 1.79418945 0.19799805 4 1 C5.66479492 3.09301758 5.66479492 3.09301758 7.29296875 5.83203125 C7.89802246 6.83057129 8.50307617 7.82911133 9.12646484 8.85791016 C9.74473145 9.8947998 10.36299805 10.93168945 11 12 C12.20013218 13.92325965 13.40453217 15.84386302 14.61328125 17.76171875 C16.50283937 20.78536466 18.38921635 23.81092116 20.27148438 26.83911133 C23.21428369 31.56855805 26.16748611 36.28477064 29.23046875 40.9375 C29.94046021 42.02865112 29.94046021 42.02865112 30.66479492 43.1418457 C31.52913056 44.46608566 32.40493111 45.78294199 33.29418945 47.09057617 C35.13252403 49.92835552 36.04285344 51.49848081 35.75 54.92578125 C35.5025 55.61027344 35.255 56.29476562 35 57 C34.34 57 33.68 57 33 57 C32.77957031 57.56203125 32.55914062 58.1240625 32.33203125 58.703125 C24.18616736 72.74936537 1.47215968 82.80495924 -13.3125 86.875 C-14.87204503 87.26210533 -16.43349014 87.64211999 -18 88 C-18.66 86.68 -19.32 85.36 -20 84 C-16.28281498 81.56200821 -12.46784402 79.89554866 -8.36376953 78.2487793 C5.7596375 72.58085128 16.63911163 64.98818962 28 55 C27.42250531 51.14231832 26.30799701 48.45735467 24.26171875 45.1484375 C23.69420898 44.22321289 23.12669922 43.29798828 22.54199219 42.34472656 C21.62401855 40.87471191 21.62401855 40.87471191 20.6875 39.375 C20.06391602 38.36405273 19.44033203 37.35310547 18.79785156 36.31152344 C16.87493359 33.2015228 14.93996157 30.09939366 13 27 C12.40461426 26.04834961 11.80922852 25.09669922 11.19580078 24.11621094 C5.18717986 14.50064629 5.18717986 14.50064629 -1 5 C-0.625 2.3125 -0.625 2.3125 0 0 Z " fill="#000000" transform="translate(393,215)"/>
<path d="M0 0 C1.67542976 0.28604898 3.34385343 0.61781233 5 1 C5.02333521 20.00149191 5.04098224 39.00298092 5.05181217 58.00448418 C5.0569738 66.82672479 5.06401398 75.6489565 5.07543945 84.47119141 C5.08539034 92.15846485 5.0918544 99.84573185 5.09408849 107.53301156 C5.09539491 111.60532752 5.09847643 115.67762507 5.10573006 119.74993515 C5.11249664 123.57968829 5.11461565 127.40941534 5.11310768 131.23917389 C5.11338372 132.64771033 5.11538508 134.05624761 5.11920547 135.4647789 C5.12415258 137.3821017 5.12239523 139.29943837 5.12025452 141.21676636 C5.12117631 142.29157698 5.1220981 143.3663876 5.12304783 144.47376823 C5 147 5 147 4 149 C0.125 148.125 0.125 148.125 -1 147 C-1.09873281 145.11669453 -1.12632187 143.22964162 -1.12698364 141.34375 C-1.12980347 140.115354 -1.13262329 138.88695801 -1.13552856 137.62133789 C-1.13358397 136.24755845 -1.13153578 134.87377915 -1.12939453 133.5 C-1.13074853 132.06306921 -1.13252846 130.62613877 -1.13470459 129.18920898 C-1.13927906 125.27609411 -1.13748931 121.36300549 -1.1343255 117.44989014 C-1.13180197 113.3637281 -1.13413942 109.27756837 -1.13571167 105.19140625 C-1.13753339 98.32812088 -1.13512701 91.46484625 -1.13037109 84.6015625 C-1.12492847 76.65527994 -1.12669112 68.70902303 -1.1321975 60.76274109 C-1.13672857 53.95256836 -1.13737921 47.14240337 -1.13475883 40.33222961 C-1.13319602 36.25940531 -1.13300239 32.18659307 -1.13629532 28.11376953 C-1.13917395 24.28564243 -1.13719849 20.45754855 -1.13140106 16.62942505 C-1.13007342 15.22046972 -1.13046765 13.81151162 -1.13266373 12.40255737 C-1.13537504 10.48712257 -1.13138058 8.57168168 -1.12698364 6.65625 C-1.12660662 5.58181641 -1.12622959 4.50738281 -1.12584114 3.40039062 C-1 1 -1 1 0 0 Z " fill="#000000" transform="translate(363,218)"/>
<path d="M0 0 C2.81823444 0.33196193 3.79656951 0.75166502 5.62475586 2.98339844 C6.14948486 3.8499707 6.67421387 4.71654297 7.21484375 5.609375 C7.81167969 6.58068359 8.40851563 7.55199219 9.0234375 8.55273438 C9.65507812 9.60783203 10.28671875 10.66292969 10.9375 11.75 C11.60136719 12.83603516 12.26523437 13.92207031 12.94921875 15.04101562 C14.31839563 17.28160565 15.68279045 19.52512464 17.04248047 21.77148438 C19.82933678 26.36781612 22.66465512 30.93349083 25.5 35.5 C26.56524502 37.22256915 27.63034749 38.94522647 28.6953125 40.66796875 C32.23936258 46.39272711 35.80532442 52.10369471 39.375 57.8125 C39.99713379 58.80757568 40.61926758 59.80265137 41.26025391 60.82788086 C44.49303744 65.99675457 47.72928435 71.16343664 50.96875 76.328125 C54.10229439 81.32524643 57.22407515 86.32955037 60.33886719 91.33837891 C61.87438705 93.79873128 63.42394436 96.24963819 64.9765625 98.69921875 C65.81841813 100.04903674 66.65962301 101.39926094 67.5 102.75 C67.8801123 103.33982666 68.26022461 103.92965332 68.65185547 104.53735352 C71.06332805 108.46171155 71.06332805 108.46171155 70.71875 111.390625 C70.4815625 111.92171875 70.244375 112.4528125 70 113 C66.49467165 112.39967802 66.09876216 112.12828721 63.765625 109.09765625 C62.91436281 107.76061851 62.07694022 106.41471563 61.25 105.0625 C60.78392334 104.32177246 60.31784668 103.58104492 59.83764648 102.81787109 C58.21043961 100.22074498 56.6041827 97.61140726 55 95 C53.71486551 92.91795532 52.42970822 90.83592471 51.14453125 88.75390625 C48.397492 84.29672152 45.65827871 79.83481379 42.921875 75.37109375 C39.59306343 69.95009349 36.22100715 64.55867153 32.8125 59.1875 C28.18722854 51.89799128 23.6139686 44.57828353 19.09643555 37.22143555 C16.05656343 32.28021506 12.96381297 27.38024432 9.80859375 22.51171875 C8.76409058 20.88496216 8.76409058 20.88496216 7.69848633 19.2253418 C6.3392184 17.11097837 4.96832863 15.0040314 3.5847168 12.90551758 C2.97152588 11.94669678 2.35833496 10.98787598 1.7265625 10 C1.17564941 9.154375 0.62473633 8.30875 0.05712891 7.4375 C-1.21720894 4.49916534 -0.92380406 3.01430605 0 0 Z " fill="#000000" transform="translate(408,218)"/>
<path d="M0 0 C1.98 0.495 1.98 0.495 4 1 C4 42.25 4 83.5 4 126 C2.02 126.495 2.02 126.495 0 127 C-1.65279761 125.34720239 -1.1260507 123.41644417 -1.12698364 121.14099121 C-1.12980347 120.08929245 -1.13262329 119.03759369 -1.13552856 117.95402527 C-1.13350433 116.79034927 -1.1314801 115.62667328 -1.12939453 114.42773438 C-1.13114685 113.20999832 -1.13289917 111.99226227 -1.13470459 110.73762512 C-1.13836281 107.38852884 -1.13748966 104.03949398 -1.1343255 100.69040108 C-1.13180154 97.19281046 -1.13413954 93.69522255 -1.13571167 90.19763184 C-1.13753326 84.32299323 -1.13512734 78.44836717 -1.13037109 72.57373047 C-1.12492849 65.77260949 -1.12669116 58.97151849 -1.1321975 52.17039824 C-1.13672893 46.34110872 -1.13737903 40.51182826 -1.13475883 34.68253756 C-1.13319622 31.19657175 -1.13300185 27.71062006 -1.13629532 24.22465515 C-1.13970835 20.34051337 -1.1349838 16.45640542 -1.12939453 12.57226562 C-1.13141876 11.40858963 -1.13344299 10.24491364 -1.13552856 9.04597473 C-1.13270874 7.99427597 -1.12988892 6.94257721 -1.12698364 5.85900879 C-1.12660662 4.93943642 -1.12622959 4.01986404 -1.12584114 3.07242584 C-1 1 -1 1 0 0 Z " fill="#000000" transform="translate(347,229)"/>
<path d="M0 0 C2.7001351 0 4.43789766 0.4963563 6.46484375 2.3125 C7.59897105 3.51040463 8.73308417 4.70832268 9.8671875 5.90625 C21.49877331 17.3248031 35.51240972 24.15054182 50.6796875 29.421875 C54.27406536 30.68641824 57.63318726 32.2029231 61 34 C60.67 35.32 60.34 36.64 60 38 C38.67850426 36.74579437 18.16964923 21.87576738 3 8 C0.35380497 11.21752035 -2.01889996 14.46113527 -4.21484375 18 C-4.81256592 18.95994873 -5.41028809 19.91989746 -6.02612305 20.90893555 C-6.65687744 21.92898682 -7.28763184 22.94903809 -7.9375 24 C-8.59339111 25.05421143 -9.24928223 26.10842285 -9.92504883 27.19458008 C-13.2098205 32.47860607 -16.47762803 37.77288116 -19.734375 43.07421875 C-20.31711182 44.02103516 -20.89984863 44.96785156 -21.50024414 45.94335938 C-22.59903613 47.73042666 -23.69473827 49.51939864 -24.78686523 51.31054688 C-27.31284093 55.42155287 -29.8583029 59.31844086 -33 63 C-34.32 62.34 -35.64 61.68 -37 61 C-35.26843658 56.00549049 -32.54260505 51.68193157 -29.8125 47.1875 C-29.29147705 46.32455322 -28.7704541 45.46160645 -28.23364258 44.57250977 C-21.60848248 33.6414332 -14.82070407 22.80985594 -8 12 C-7.3498291 10.96891113 -6.6996582 9.93782227 -6.02978516 8.87548828 C-5.39733887 7.87630371 -4.76489258 6.87711914 -4.11328125 5.84765625 C-3.54005127 4.94152588 -2.96682129 4.03539551 -2.3762207 3.10180664 C-1 1 -1 1 0 0 Z " fill="#000000" transform="translate(263,276)"/>
<path d="M0 0 C4.26905455 1.76799229 5.73701659 5.17454868 8.01953125 9.05859375 C8.52516602 9.88891113 9.03080078 10.71922852 9.55175781 11.57470703 C10.66980595 13.41207528 11.78127917 15.2534556 12.88720703 17.09814453 C15.16864724 20.88789402 17.492472 24.65070686 19.81782532 28.41362 C22.80311306 33.2449241 25.78243527 38.07965994 28.73242188 42.93261719 C30.13849099 45.20305025 31.56672535 47.43634167 33.04101562 49.66113281 C33.42110779 50.24609528 33.80119995 50.83105774 34.19281006 51.43374634 C35.25962536 53.07291219 36.34180241 54.70205002 37.42480469 56.33056641 C38.70703125 59.12109375 38.70703125 59.12109375 37.91894531 61.49365234 C37.51901367 62.03070801 37.11908203 62.56776367 36.70703125 63.12109375 C33.03953617 61.66520333 31.63222038 59.92761817 29.59765625 56.58984375 C29.01532227 55.64584717 28.43298828 54.70185059 27.83300781 53.72924805 C27.21393555 52.70355713 26.59486328 51.67786621 25.95703125 50.62109375 C25.30959961 49.56768799 24.66216797 48.51428223 23.99511719 47.42895508 C22.25297885 44.59140656 20.51943326 41.74898752 18.79052734 38.90338135 C15.87521992 34.10787143 12.9455771 29.32113261 10.01306152 24.53613281 C8.97094593 22.8313565 7.93513486 21.12273146 6.89941406 19.4140625 C6.26358398 18.3725 5.62775391 17.3309375 4.97265625 16.2578125 C4.41352539 15.33701904 3.85439453 14.41622559 3.27832031 13.4675293 C1.89603327 11.40333403 0.53713175 9.78604389 -1.29296875 8.12109375 C-2.11474609 8.92160156 -2.11474609 8.92160156 -2.953125 9.73828125 C-16.47603492 22.44761773 -35.4810945 35.43907955 -54.29296875 38.12109375 C-56.55078125 37.6796875 -56.55078125 37.6796875 -58.29296875 37.12109375 C-58.29296875 35.80109375 -58.29296875 34.48109375 -58.29296875 33.12109375 C-56.47925781 32.48494141 -56.47925781 32.48494141 -54.62890625 31.8359375 C-39.22603414 26.3536396 -12.31583708 0.65041048 0 0 Z " fill="#000000" transform="translate(432.29296875,275.87890625)"/>
<path d="M0 0 C3.34784505 1.24861273 4.91912535 3.25019192 7.23876953 5.9440918 C7.89111572 6.68900879 7.89111572 6.68900879 8.55664062 7.44897461 C10.48870866 9.66133159 12.38370796 11.90505592 14.28564453 14.14331055 C18.32536146 18.8594021 22.56314313 22.94241549 27.36376953 26.8815918 C28.34990234 27.70530273 29.33603516 28.52901367 30.35205078 29.37768555 C54.04730553 48.81725152 81.83013003 61.22098906 111.36376953 68.8815918 C111.92626953 70.8190918 111.92626953 70.8190918 112.36376953 72.8815918 C112.03376953 73.2115918 111.70376953 73.5415918 111.36376953 73.8815918 C78.67361757 72.71408637 44.50993018 50.34034372 20.91357422 29.23413086 C19.29987374 27.82582893 17.63774312 26.49276245 15.96533203 25.1550293 C15.10681641 24.40479492 14.24830078 23.65456055 13.36376953 22.8815918 C13.36376953 22.2215918 13.36376953 21.5615918 13.36376953 20.8815918 C12.70376953 20.8815918 12.04376953 20.8815918 11.36376953 20.8815918 C9.77783203 19.30737305 9.77783203 19.30737305 7.98876953 17.1940918 C7.37130859 16.46834961 6.75384766 15.74260742 6.11767578 14.99487305 C4.16915491 12.64710068 2.24216973 10.28594405 0.36376953 7.8815918 C-3.63055828 9.50220213 -6.43181368 12.27498353 -9.44873047 15.2565918 C-9.96371094 15.73870117 -10.47869141 16.22081055 -11.00927734 16.7175293 C-12.6693672 18.29530463 -12.6693672 18.29530463 -14.63623047 20.8815918 C-14.61178093 24.30452666 -13.53651195 24.98374248 -11.07373047 27.5065918 C-10.26935547 28.2903418 -9.46498047 29.0740918 -8.63623047 29.8815918 C-8.63623047 30.5415918 -8.63623047 31.2015918 -8.63623047 31.8815918 C-7.97623047 31.8815918 -7.31623047 31.8815918 -6.63623047 31.8815918 C-6.63623047 32.5415918 -6.63623047 33.2015918 -6.63623047 33.8815918 C-6.05873047 33.5309668 -5.48123047 33.1803418 -4.88623047 32.8190918 C-2.27821271 31.73241773 -1.24205418 31.95094047 1.36376953 32.8815918 C0.99251953 33.8509668 0.62126953 34.8203418 0.23876953 35.8190918 C-0.15551667 37.79025941 -0.15551667 37.79025941 0.36376953 39.8815918 C3.2759231 43.39221761 6.77314828 46.09052146 10.36376953 48.8815918 C11.24548828 49.58413086 12.12720703 50.28666992 13.03564453 51.01049805 C15.12744594 52.65929056 17.23430448 54.28192119 19.36376953 55.8815918 C19.97736328 55.54385742 20.59095703 55.20612305 21.22314453 54.8581543 C23.76944083 53.69652277 24.78520088 53.96067442 27.36376953 54.8815918 C27.03376953 56.8615918 26.70376953 58.8415918 26.36376953 60.8815918 C34.1544373 66.03420924 41.84996087 70.97779474 50.36376953 74.8815918 C50.85876953 73.3965918 50.85876953 73.3965918 51.36376953 71.8815918 C52.68376953 71.8815918 54.00376953 71.8815918 55.36376953 71.8815918 C56.36376953 74.8815918 56.36376953 74.8815918 55.36376953 77.8815918 C63.89932281 81.98234344 72.36771722 85.87043915 81.36376953 88.8815918 C81.85876953 86.9015918 81.85876953 86.9015918 82.36376953 84.8815918 C84.01376953 85.2115918 85.66376953 85.5415918 87.36376953 85.8815918 C87.36376953 87.5315918 87.36376953 89.1815918 87.36376953 90.8815918 C88.25684814 91.10093384 88.25684814 91.10093384 89.16796875 91.32470703 C91.85884649 91.98704864 94.54881171 92.65302448 97.23876953 93.3190918 C98.17591797 93.54918945 99.11306641 93.77928711 100.07861328 94.01635742 C101.42246094 94.34990234 101.42246094 94.34990234 102.79345703 94.69018555 C104.03458252 94.99653931 104.03458252 94.99653931 105.30078125 95.30908203 C107.36376953 95.8815918 107.36376953 95.8815918 109.36376953 96.8815918 C109.03376953 98.5315918 108.70376953 100.1815918 108.36376953 101.8815918 C68.74702952 97.87898201 29.20048207 74.72551216 0.60595703 47.9128418 C-1.66202539 45.75784219 -1.66202539 45.75784219 -4.63623047 43.8815918 C-4.63623047 43.2215918 -4.63623047 42.5615918 -4.63623047 41.8815918 C-6.12123047 41.3865918 -6.12123047 41.3865918 -7.63623047 40.8815918 C-9.17919922 39.3503418 -9.17919922 39.3503418 -10.82373047 37.3815918 C-12.79763782 35.02727404 -14.77317535 32.7394614 -16.90576172 30.52612305 C-17.64181641 29.75655273 -18.37787109 28.98698242 -19.13623047 28.1940918 C-20.17263672 27.13641602 -20.17263672 27.13641602 -21.22998047 26.05737305 C-22.63623047 23.8815918 -22.63623047 23.8815918 -22.47900391 21.53808594 C-20.81269026 16.28572244 -16.21548989 12.80765343 -12.38623047 9.0065918 C-11.52642578 8.11456055 -10.66662109 7.2225293 -9.78076172 6.3034668 C-8.52585938 5.04663086 -8.52585938 5.04663086 -7.24560547 3.7644043 C-6.4821582 2.99499512 -5.71871094 2.22558594 -4.93212891 1.43286133 C-2.63623047 -0.1184082 -2.63623047 -0.1184082 0 0 Z " fill="#000000" transform="translate(197.63623046875,316.118408203125)"/>
<path d="M0 0 C6.76282907 0.75092683 10.28890476 5.62988328 14.875 10.25 C15.76703125 11.10980469 16.6590625 11.96960938 17.578125 12.85546875 C18.41601562 13.69207031 19.25390625 14.52867187 20.1171875 15.390625 C20.88659668 16.15407227 21.65600586 16.91751953 22.44873047 17.70410156 C24 20 24 20 23.85864258 22.63623047 C22.73605612 25.7266149 21.0774165 27.50006243 18.8125 29.875 C15.97045939 32.8980623 13.19568431 35.9182508 10.5625 39.125 C9.716875 40.07375 8.87125 41.0225 8 42 C7.34 42 6.68 42 6 42 C5.67 42.99 5.34 43.98 5 45 C2.57056228 47.58037912 -0.26903419 49.74745156 -3 52 C-3.51900879 52.43521973 -4.03801758 52.87043945 -4.57275391 53.31884766 C-14.21683179 61.38656979 -24.26994448 68.45310375 -35 75 C-35.63454102 75.3928418 -36.26908203 75.78568359 -36.92285156 76.19042969 C-57.52500853 88.83633765 -82.77939201 99.68647494 -107 102 C-107.495 99.525 -107.495 99.525 -108 97 C-105.0835095 96.18686324 -102.16681631 95.3744665 -99.25 94.5625 C-98.425 94.33240234 -97.6 94.10230469 -96.75 93.86523438 C-95.55117188 93.53168945 -95.55117188 93.53168945 -94.328125 93.19140625 C-93.22839355 92.88505249 -93.22839355 92.88505249 -92.10644531 92.57250977 C-90.07705853 92.0209437 -88.04204604 91.50244018 -86 91 C-86 89.35 -86 87.7 -86 86 C-83.525 85.505 -83.525 85.505 -81 85 C-80.67 86.32 -80.34 87.64 -80 89 C-76.78992753 87.73352961 -73.58227293 86.46104162 -70.375 85.1875 C-69.47136719 84.83107422 -68.56773437 84.47464844 -67.63671875 84.10742188 C-62.9769253 82.25370842 -58.43828305 80.33710254 -54 78 C-54.2784375 77.071875 -54.2784375 77.071875 -54.5625 76.125 C-55 74 -55 74 -54 72 C-52.35 72.33 -50.7 72.66 -49 73 C-49 73.66 -49 74.32 -49 75 C-40.44143586 70.9938636 -32.73869711 66.4061111 -25 61 C-25.185625 60.21625 -25.37125 59.4325 -25.5625 58.625 C-26 56 -26 56 -25 54 C-24.4225 54.165 -23.845 54.33 -23.25 54.5 C-20.73335631 55.14462031 -20.73335631 55.14462031 -17 55 C-14.07178501 52.98208768 -11.47417697 50.69174263 -8.77734375 48.375 C-6 46 -6 46 -3.69140625 44.3125 C-1.4953987 42.77136543 -1.4953987 42.77136543 1 40 C1.1143337 36.19998135 1.1143337 36.19998135 0 33 C3.09354597 32.00564594 4.90279155 32.12159004 8 33 C9.36919284 31.59785066 10.71998709 30.17771527 12.0625 28.75 C12.81660156 27.96109375 13.57070313 27.1721875 14.34765625 26.359375 C16.24479997 24.20748236 16.24479997 24.20748236 15.76904297 22.04101562 C14.92506983 19.80113771 14.03687914 18.66321045 12.34765625 16.984375 C11.55391602 16.19160156 11.55391602 16.19160156 10.74414062 15.3828125 C10.18919922 14.84398437 9.63425781 14.30515625 9.0625 13.75 C8.51142578 13.19570313 7.96035156 12.64140625 7.39257812 12.0703125 C4.69436971 9.00996137 4.69436971 9.00996137 1 8 C-0.60480279 9.54775998 -0.60480279 9.54775998 -2.25 11.5625 C-2.86746094 12.28566406 -3.48492187 13.00882812 -4.12109375 13.75390625 C-5.32663107 15.19503715 -6.52757578 16.64002957 -7.72265625 18.08984375 C-8.24730469 18.72019531 -8.77195312 19.35054688 -9.3125 20 C-10.01826172 20.86625 -10.01826172 20.86625 -10.73828125 21.75 C-12 23 -12 23 -14 23 C-14 23.66 -14 24.32 -14 25 C-15.54888502 26.41706502 -17.16761534 27.75809496 -18.8125 29.0625 C-23.21075959 32.5583871 -23.21075959 32.5583871 -27.51171875 36.171875 C-47.12992218 53.04907355 -82.74511178 75.3345143 -110 74 C-110.33 72.68 -110.66 71.36 -111 70 C-105.62211521 67.54566332 -100.24574168 65.84787942 -94.5625 64.25 C-85.31622595 61.54558965 -76.6500377 58.22886233 -68 54 C-67.23800293 53.62858887 -66.47600586 53.25717773 -65.69091797 52.87451172 C-54.73136895 47.46679575 -44.67891442 41.45671468 -35 34 C-34.13375 33.34515625 -33.2675 32.6903125 -32.375 32.015625 C-22.4460255 24.31430504 -12.95088751 15.74904463 -5 6 C-4.02099074 4.83320124 -3.04183719 3.66652353 -2.0625 2.5 C-1.381875 1.675 -0.70125 0.85 0 0 Z " fill="#000000" transform="translate(498,316)"/>
<path d="M0 0 C3.66177496 3.30480947 6.30439584 6.82633228 8.484375 11.2421875 C9.01675781 12.304375 9.54914063 13.3665625 10.09765625 14.4609375 C12.5955943 21.31626524 12.06533486 29.02964989 12.171875 36.2421875 C12.2050953 37.79560093 12.23958922 39.34898767 12.27539062 40.90234375 C12.36212416 44.68231224 12.42263917 48.46140035 12.484375 52.2421875 C23.044375 52.2421875 33.604375 52.2421875 44.484375 52.2421875 C44.484375 57.5221875 44.484375 62.8021875 44.484375 68.2421875 C33.924375 68.2421875 23.364375 68.2421875 12.484375 68.2421875 C11.824375 70.2221875 11.164375 72.2021875 10.484375 74.2421875 C1.50516723 74.26531316 -7.47403037 74.28310373 -16.45326138 74.29399967 C-20.62225328 74.29922801 -24.79122487 74.30632476 -28.96020508 74.31762695 C-32.98020186 74.32845758 -37.00017905 74.33446471 -41.02018929 74.33706474 C-42.55725475 74.33891868 -44.09431909 74.34253869 -45.63137627 74.34791756 C-47.77697987 74.35513034 -49.92250155 74.35617834 -52.06811523 74.35571289 C-53.29167221 74.3579335 -54.51522919 74.36015411 -55.77586365 74.36244202 C-58.515625 74.2421875 -58.515625 74.2421875 -59.515625 73.2421875 C-59.58789002 71.38931248 -59.5994372 69.53384872 -59.578125 67.6796875 C-59.56910156 66.66777344 -59.56007813 65.65585937 -59.55078125 64.61328125 C-59.53917969 63.83082031 -59.52757812 63.04835938 -59.515625 62.2421875 C-60.505625 62.7371875 -60.505625 62.7371875 -61.515625 63.2421875 C-64.06720155 63.313861 -66.59035471 63.33527192 -69.140625 63.3046875 C-69.84703125 63.30017578 -70.5534375 63.29566406 -71.28125 63.29101562 C-73.02607775 63.27922625 -74.770862 63.26129074 -76.515625 63.2421875 C-76.845625 64.8921875 -77.175625 66.5421875 -77.515625 68.2421875 C-80.82810687 68.27106896 -84.14055667 68.28894549 -87.453125 68.3046875 C-88.39865234 68.31306641 -89.34417969 68.32144531 -90.31835938 68.33007812 C-91.66704102 68.33491211 -91.66704102 68.33491211 -93.04296875 68.33984375 C-93.87562256 68.34508057 -94.70827637 68.35031738 -95.56616211 68.35571289 C-97.515625 68.2421875 -97.515625 68.2421875 -98.515625 67.2421875 C-98.61471802 64.91058695 -98.64533004 62.57588808 -98.640625 60.2421875 C-98.64320313 58.9634375 -98.64578125 57.6846875 -98.6484375 56.3671875 C-98.515625 53.2421875 -98.515625 53.2421875 -97.515625 52.2421875 C-96.0269064 52.15549318 -94.53418 52.13515256 -93.04296875 52.14453125 C-92.14384766 52.14775391 -91.24472656 52.15097656 -90.31835938 52.15429688 C-88.90006836 52.16686523 -88.90006836 52.16686523 -87.453125 52.1796875 C-86.50373047 52.18419922 -85.55433594 52.18871094 -84.57617188 52.19335938 C-82.22259435 52.2051864 -79.86914023 52.22166725 -77.515625 52.2421875 C-77.185625 53.8921875 -76.855625 55.5421875 -76.515625 57.2421875 C-74.90880859 57.22478516 -74.90880859 57.22478516 -73.26953125 57.20703125 C-71.87239757 57.19765451 -70.47526201 57.18855419 -69.078125 57.1796875 C-68.37107422 57.17130859 -67.66402344 57.16292969 -66.93554688 57.15429688 C-65.12868941 57.14565162 -63.32174897 57.18998739 -61.515625 57.2421875 C-61.185625 57.5721875 -60.855625 57.9021875 -60.515625 58.2421875 C-60.51151611 57.12360352 -60.50740723 56.00501953 -60.50317383 54.85253906 C-60.4811745 50.64749933 -60.42667468 46.44336798 -60.36303711 42.23876953 C-60.3400366 40.42928871 -60.32550413 38.61967742 -60.32006836 36.81005859 C-60.27150238 23.29377194 -59.4005318 11.29056851 -49.53125 0.9921875 C-34.52575857 -12.03583607 -15.57625501 -12.01219666 0 0 Z M-49.18359375 9.2265625 C-53.00204573 15.0046306 -54.6486142 21.0310215 -54.62915039 27.94067383 C-54.62902954 28.85369263 -54.62890869 29.76671143 -54.62878418 30.70739746 C-54.62366821 31.65344849 -54.61855225 32.59949951 -54.61328125 33.57421875 C-54.61227417 34.45380249 -54.61126709 35.33338623 -54.61022949 36.23962402 C-54.60501506 39.5113252 -54.59105383 42.78300772 -54.578125 46.0546875 C-54.5575 53.3765625 -54.536875 60.6984375 -54.515625 68.2421875 C-34.385625 68.2421875 -14.255625 68.2421875 6.484375 68.2421875 C6.525625 61.1471875 6.566875 54.0521875 6.609375 46.7421875 C6.62758301 44.51791016 6.64579102 42.29363281 6.66455078 40.00195312 C6.67039798 38.21745036 6.675493 36.43294491 6.6796875 34.6484375 C6.6950354 33.28477051 6.6950354 33.28477051 6.71069336 31.89355469 C6.71319492 22.65778947 5.12405681 13.40791033 -1.23828125 6.32421875 C-9.27764837 -1.1717319 -16.70967803 -3.5970085 -27.72265625 -3.265625 C-36.60391197 -2.07657943 -43.6785309 2.20794222 -49.18359375 9.2265625 Z M11.484375 56.2421875 C11.484375 58.8821875 11.484375 61.5221875 11.484375 64.2421875 C20.724375 63.9121875 29.964375 63.5821875 39.484375 63.2421875 C39.484375 61.2621875 39.484375 59.2821875 39.484375 57.2421875 C25.624375 56.7471875 25.624375 56.7471875 11.484375 56.2421875 Z M-92.515625 57.2421875 C-92.515625 59.2221875 -92.515625 61.2021875 -92.515625 63.2421875 C-89.215625 63.2421875 -85.915625 63.2421875 -82.515625 63.2421875 C-82.13343733 61.58604093 -81.80167398 59.91761726 -81.515625 58.2421875 C-82.54969173 56.98269701 -82.54969173 56.98269701 -84.80078125 57.14453125 C-85.71730469 57.15613281 -86.63382812 57.16773438 -87.578125 57.1796875 C-88.49722656 57.18871094 -89.41632813 57.19773437 -90.36328125 57.20703125 C-91.07355469 57.21863281 -91.78382813 57.23023438 -92.515625 57.2421875 Z " fill="#000000" transform="translate(372.515625,375.7578125)"/>
<path d="M0 0 C5.92330329 5.21132026 9.55234887 10.20955152 10.30078125 18.21875 C10.34044065 29.32338308 10.34044065 29.32338308 7 34 C6.37931641 34.87398438 6.37931641 34.87398438 5.74609375 35.765625 C1.05293136 41.8526694 -4.28780405 44.80774512 -11.875 45.9375 C-18.85888123 46.36661713 -25.21322838 44.70361171 -30.8125 40.4375 C-36.65286927 34.79088706 -39.28160161 28.45551048 -39.5625 20.375 C-39.19637601 12.37659895 -37.03441219 7.66447295 -31.25 2.1875 C-21.76592655 -5.49091806 -10.56536886 -6.35957194 0 0 Z M-30.375 9.5 C-33.57241068 14.41909335 -34.50042499 18.09498509 -34 24 C-32.60859025 30.52697665 -29.4812651 34.2986726 -24 38 C-19.24472358 40.85316585 -14.39086533 40.73071204 -9 40 C-2.78393313 37.5053264 1.38510164 33.30669665 4.3125 27.3125 C5.55571826 21.32244837 5.09179243 16.0329928 2.1875 10.625 C-1.95413267 5.6550408 -4.99191083 2.56916064 -11.61328125 1.62890625 C-19.92820291 1.42434233 -24.67127029 3.49607399 -30.375 9.5 Z " fill="#000000" transform="translate(363,382)"/>
<path d="M0 0 C-0.33 1.65 -0.66 3.3 -1 5 C-3.64 5.66 -6.28 6.32 -9 7 C-9.4021875 8.9490625 -9.4021875 8.9490625 -9.8125 10.9375 C-10.26953125 13.15234375 -10.26953125 13.15234375 -11 15 C-11.99 15.33 -12.98 15.66 -14 16 C-14.66 15.67 -15.32 15.34 -16 15 C-16.32456694 10.94291326 -16.21697989 8.45131817 -14.4375 4.75 C-10.39344835 0.18748019 -5.97010303 -1.99003434 0 0 Z " fill="#000000" transform="translate(351,390)"/>
<path d="M0 0 C1.32 0.33 2.64 0.66 4 1 C4.41269478 4.37034069 4.61607781 6.96283197 2.83984375 9.953125 C0.02278156 13.38259201 -2.51278078 16.07954478 -7 17 C-9.8125 16.625 -9.8125 16.625 -12 16 C-11.67 14.35 -11.34 12.7 -11 11 C-9.741875 10.855625 -8.48375 10.71125 -7.1875 10.5625 C-4.95170303 10.13357299 -4.95170303 10.13357299 -3 9 C-1.38701861 6.12605596 -0.6360833 3.22017171 0 0 Z " fill="#000000" transform="translate(358,400)"/>
</svg>
